<?xml version="1.0" encoding="UTF-8" standalone="no"?>
<!DOCTYPE svg PUBLIC "-//W3C//DTD SVG 1.1//EN"
 "http://www.w3.org/Graphics/SVG/1.1/DTD/svg11.dtd">
<!-- Generated by graphviz version 9.0.0 (20230911.1827)
 -->
<!-- Title: fileDAG Pages: 1 -->
<svg width="670pt" height="404pt"
 viewBox="0.00 0.00 670.25 404.00" xmlns="http://www.w3.org/2000/svg" xmlns:xlink="http://www.w3.org/1999/xlink">
<g id="graph0" class="graph" transform="scale(1 1) rotate(0) translate(4 400)">
<title>fileDAG</title>
<polygon fill="white" stroke="none" points="-4,4 -4,-400 666.25,-400 666.25,4 -4,4"/>
<!-- made/CausalModel.csv -->
<g id="node1" class="node made-CausalModel-csv -->
">
<title>made/CausalModel.csv</title>
<path fill="none" stroke="grey" stroke-width="2" d="M401.75,-396C401.75,-396 307,-396 307,-396 301,-396 295,-390 295,-384 295,-384 295,-372 295,-372 295,-366 301,-360 307,-360 307,-360 401.75,-360 401.75,-360 407.75,-360 413.75,-366 413.75,-372 413.75,-372 413.75,-384 413.75,-384 413.75,-390 407.75,-396 401.75,-396"/>
<text text-anchor="middle" x="354.38" y="-374.12" font-family="mono" font-size="10.00">made/CausalModel.csv</text>
</g>
<!-- made/DeepLearning.csv -->
<g id="node2" class="node made-DeepLearning-csv -->
">
<title>made/DeepLearning.csv</title>
<path fill="none" stroke="grey" stroke-width="2" d="M403.25,-324C403.25,-324 305.5,-324 305.5,-324 299.5,-324 293.5,-318 293.5,-312 293.5,-312 293.5,-300 293.5,-300 293.5,-294 299.5,-288 305.5,-288 305.5,-288 403.25,-288 403.25,-288 409.25,-288 415.25,-294 415.25,-300 415.25,-300 415.25,-312 415.25,-312 415.25,-318 409.25,-324 403.25,-324"/>
<text text-anchor="middle" x="354.38" y="-302.12" font-family="mono" font-size="10.00">made/DeepLearning.csv</text>
</g>
<!-- made/MultilevelModel.csv -->
<g id="node3" class="node made-MultilevelModel-csv -->
">
<title>made/MultilevelModel.csv</title>
<path fill="none" stroke="grey" stroke-width="2" d="M407,-252C407,-252 301.75,-252 301.75,-252 295.75,-252 289.75,-246 289.75,-240 289.75,-240 289.75,-228 289.75,-228 289.75,-222 295.75,-216 301.75,-216 301.75,-216 407,-216 407,-216 413,-216 419,-222 419,-228 419,-228 419,-240 419,-240 419,-246 413,-252 407,-252"/>
<text text-anchor="middle" x="354.38" y="-230.12" font-family="mono" font-size="10.00">made/MultilevelModel.csv</text>
</g>
<!-- made/merged.csv -->
<g id="node4" class="node made-merged-csv -->
">
<title>made/merged.csv</title>
<path fill="none" stroke="#e500ac" stroke-width="2" d="M389.38,-180C389.38,-180 319.38,-180 319.38,-180 313.38,-180 307.38,-174 307.38,-168 307.38,-168 307.38,-156 307.38,-156 307.38,-150 313.38,-144 319.38,-144 319.38,-144 389.38,-144 389.38,-144 395.38,-144 401.38,-150 401.38,-156 401.38,-156 401.38,-168 401.38,-168 401.38,-174 395.38,-180 389.38,-180"/>
<text text-anchor="middle" x="354.38" y="-158.12" font-family="mono" font-size="10.00">made/merged.csv</text>
</g>
<!-- made/wordfreq.png -->
<g id="node6" class="node made-wordfreq-png -->
">
<title>made/wordfreq.png</title>
<path fill="none" stroke="grey" stroke-width="2" d="M650.25,-108C650.25,-108 575,-108 575,-108 569,-108 563,-102 563,-96 563,-96 563,-84 563,-84 563,-78 569,-72 575,-72 575,-72 650.25,-72 650.25,-72 656.25,-72 662.25,-78 662.25,-84 662.25,-84 662.25,-96 662.25,-96 662.25,-102 656.25,-108 650.25,-108"/>
<text text-anchor="middle" x="612.62" y="-86.12" font-family="mono" font-size="10.00">made/wordfreq.png</text>
</g>
<!-- made/merged.csv&#45;&gt;made/wordfreq.png -->
<g id="edge1" class="edge made-merged-csv">
<title>made/merged.csv&#45;&gt;made/wordfreq.png</title>
<path fill="none" stroke="#e500ac" d="M402.08,-148.88C443.95,-137.11 505.64,-119.78 551.25,-106.96"/>
<polygon fill="#e500ac" stroke="#e500ac" points="552.05,-110.38 560.73,-104.3 550.15,-103.64 552.05,-110.38"/>
</g>
<!-- made/stopwords.txt -->
<g id="node5" class="node made-stopwords-txt -->
">
<title>made/stopwords.txt</title>
<path fill="none" stroke="#7200e5" stroke-width="2" d="M393.5,-108C393.5,-108 315.25,-108 315.25,-108 309.25,-108 303.25,-102 303.25,-96 303.25,-96 303.25,-84 303.25,-84 303.25,-78 309.25,-72 315.25,-72 315.25,-72 393.5,-72 393.5,-72 399.5,-72 405.5,-78 405.5,-84 405.5,-84 405.5,-96 405.5,-96 405.5,-102 399.5,-108 393.5,-108"/>
<text text-anchor="middle" x="354.38" y="-86.12" font-family="mono" font-size="10.00">made/stopwords.txt</text>
</g>
<!-- made/stopwords.txt&#45;&gt;made/wordfreq.png -->
<g id="edge2" class="edge made-stopwords-txt">
<title>made/stopwords.txt&#45;&gt;made/wordfreq.png</title>
<path fill="none" stroke="#7200e5" d="M406.31,-90C447.84,-90 506.63,-90 550.67,-90"/>
<polygon fill="#7200e5" stroke="#7200e5" points="550.58,-93.5 560.58,-90 550.58,-86.5 550.58,-93.5"/>
</g>
<!-- raw/html/CausalModel.html -->
<g id="node7" class="node raw-html-CausalModel-html -->
">
<title>raw/html/CausalModel.html</title>
<polygon fill="none" stroke="#0039e5" stroke-width="2" points="140.5,-324 5.25,-324 5.25,-288 140.5,-288 140.5,-324"/>
<polyline fill="none" stroke="#0039e5" stroke-width="2" points="17.25,-324 5.25,-312"/>
<polyline fill="none" stroke="#0039e5" stroke-width="2" points="5.25,-300 17.25,-288"/>
<polyline fill="none" stroke="#0039e5" stroke-width="2" points="128.5,-288 140.5,-300"/>
<polyline fill="none" stroke="#0039e5" stroke-width="2" points="140.5,-312 128.5,-324"/>
<text text-anchor="middle" x="72.88" y="-302.12" font-family="mono" font-size="10.00">raw/html/CausalModel.html</text>
</g>
<!-- raw/html/CausalModel.html&#45;&gt;made/CausalModel.csv -->
<g id="edge4" class="edge raw-html-CausalModel-html">
<title>raw/html/CausalModel.html&#45;&gt;made/CausalModel.csv</title>
<path fill="none" stroke="#0039e5" d="M141.18,-323.34C184.12,-334.4 239.68,-348.71 283.18,-359.92"/>
<polygon fill="#0039e5" stroke="#0039e5" points="282.22,-363.29 292.78,-362.39 283.97,-356.51 282.22,-363.29"/>
</g>
<!-- raw/html/CausalModel.html&#45;&gt;made/DeepLearning.csv -->
<g id="edge12" class="edge raw-html-CausalModel-html">
<title>raw/html/CausalModel.html&#45;&gt;made/DeepLearning.csv</title>
<path fill="none" stroke="#0039e5" d="M141.18,-306C183.59,-306 238.3,-306 281.54,-306"/>
<polygon fill="#0039e5" stroke="#0039e5" points="281.33,-309.5 291.33,-306 281.33,-302.5 281.33,-309.5"/>
</g>
<!-- raw/html/CausalModel.html&#45;&gt;made/MultilevelModel.csv -->
<g id="edge8" class="edge raw-html-CausalModel-html">
<title>raw/html/CausalModel.html&#45;&gt;made/MultilevelModel.csv</title>
<path fill="none" stroke="#0039e5" d="M141.18,-288.66C182.49,-278.02 235.47,-264.37 278.16,-253.38"/>
<polygon fill="#0039e5" stroke="#0039e5" points="278.78,-256.83 287.59,-250.95 277.04,-250.05 278.78,-256.83"/>
</g>
<!-- raw/html/CausalModel.html&#45;&gt;made/merged.csv -->
<g id="edge16" class="edge raw-html-CausalModel-html">
<title>raw/html/CausalModel.html&#45;&gt;made/merged.csv</title>
<path fill="none" stroke="#0039e5" d="M111.98,-287.05C122.9,-281.58 134.81,-275.58 145.75,-270 201.46,-241.56 265.26,-208.27 307.26,-186.24"/>
<polygon fill="#0039e5" stroke="#0039e5" points="308.88,-189.35 316.11,-181.6 305.63,-183.15 308.88,-189.35"/>
</g>
<!-- raw/html/DeepLearning.html -->
<g id="node8" class="node raw-html-DeepLearning-html -->
">
<title>raw/html/DeepLearning.html</title>
<polygon fill="none" stroke="#00e5e5" stroke-width="2" points="142,-252 3.75,-252 3.75,-216 142,-216 142,-252"/>
<polyline fill="none" stroke="#00e5e5" stroke-width="2" points="15.75,-252 3.75,-240"/>
<polyline fill="none" stroke="#00e5e5" stroke-width="2" points="3.75,-228 15.75,-216"/>
<polyline fill="none" stroke="#00e5e5" stroke-width="2" points="130,-216 142,-228"/>
<polyline fill="none" stroke="#00e5e5" stroke-width="2" points="142,-240 130,-252"/>
<text text-anchor="middle" x="72.88" y="-230.12" font-family="mono" font-size="10.00">raw/html/DeepLearning.html</text>
</g>
<!-- raw/html/DeepLearning.html&#45;&gt;made/CausalModel.csv -->
<g id="edge5" class="edge raw-html-DeepLearning-html">
<title>raw/html/DeepLearning.html&#45;&gt;made/CausalModel.csv</title>
<path fill="none" stroke="#00e5e5" d="M111.98,-252.95C122.9,-258.42 134.81,-264.42 145.75,-270 201.46,-298.44 265.26,-331.73 307.26,-353.76"/>
<polygon fill="#00e5e5" stroke="#00e5e5" points="305.63,-356.85 316.11,-358.4 308.88,-350.65 305.63,-356.85"/>
</g>
<!-- raw/html/DeepLearning.html&#45;&gt;made/DeepLearning.csv -->
<g id="edge13" class="edge raw-html-DeepLearning-html">
<title>raw/html/DeepLearning.html&#45;&gt;made/DeepLearning.csv</title>
<path fill="none" stroke="#00e5e5" d="M142.96,-251.8C185.11,-262.65 238.89,-276.51 281.53,-287.49"/>
<polygon fill="#00e5e5" stroke="#00e5e5" points="280.65,-290.88 291.21,-289.99 282.4,-284.1 280.65,-290.88"/>
</g>
<!-- raw/html/DeepLearning.html&#45;&gt;made/MultilevelModel.csv -->
<g id="edge9" class="edge raw-html-DeepLearning-html">
<title>raw/html/DeepLearning.html&#45;&gt;made/MultilevelModel.csv</title>
<path fill="none" stroke="#00e5e5" d="M142.96,-234C183.83,-234 235.65,-234 277.63,-234"/>
<polygon fill="#00e5e5" stroke="#00e5e5" points="277.4,-237.5 287.4,-234 277.4,-230.5 277.4,-237.5"/>
</g>
<!-- raw/html/DeepLearning.html&#45;&gt;made/merged.csv -->
<g id="edge17" class="edge raw-html-DeepLearning-html">
<title>raw/html/DeepLearning.html&#45;&gt;made/merged.csv</title>
<path fill="none" stroke="#00e5e5" d="M142.96,-216.2C189.91,-204.11 251.29,-188.3 295.63,-176.88"/>
<polygon fill="#00e5e5" stroke="#00e5e5" points="296.24,-180.33 305.05,-174.45 294.49,-173.55 296.24,-180.33"/>
</g>
<!-- raw/html/MultilevelModel.html -->
<g id="node9" class="node raw-html-MultilevelModel-html -->
">
<title>raw/html/MultilevelModel.html</title>
<polygon fill="none" stroke="#00e539" stroke-width="2" points="145.75,-180 0,-180 0,-144 145.75,-144 145.75,-180"/>
<polyline fill="none" stroke="#00e539" stroke-width="2" points="12,-180 0,-168"/>
<polyline fill="none" stroke="#00e539" stroke-width="2" points="0,-156 12,-144"/>
<polyline fill="none" stroke="#00e539" stroke-width="2" points="133.75,-144 145.75,-156"/>
<polyline fill="none" stroke="#00e539" stroke-width="2" points="145.75,-168 133.75,-180"/>
<text text-anchor="middle" x="72.88" y="-158.12" font-family="mono" font-size="10.00">raw/html/MultilevelModel.html</text>
</g>
<!-- raw/html/MultilevelModel.html&#45;&gt;made/CausalModel.csv -->
<g id="edge6" class="edge raw-html-MultilevelModel-html">
<title>raw/html/MultilevelModel.html&#45;&gt;made/CausalModel.csv</title>
<path fill="none" stroke="#00e539" d="M117.37,-180.97C127.06,-185.95 137.03,-191.71 145.75,-198 219.16,-250.95 217.71,-287.21 289.75,-342 294.93,-345.94 300.58,-349.74 306.31,-353.31"/>
<polygon fill="#00e539" stroke="#00e539" points="304.29,-356.17 314.67,-358.29 307.87,-350.16 304.29,-356.17"/>
</g>
<!-- raw/html/MultilevelModel.html&#45;&gt;made/DeepLearning.csv -->
<g id="edge14" class="edge raw-html-MultilevelModel-html">
<title>raw/html/MultilevelModel.html&#45;&gt;made/DeepLearning.csv</title>
<path fill="none" stroke="#00e539" d="M111.98,-180.95C122.9,-186.42 134.81,-192.42 145.75,-198 201.46,-226.44 265.26,-259.73 307.26,-281.76"/>
<polygon fill="#00e539" stroke="#00e539" points="305.63,-284.85 316.11,-286.4 308.88,-278.65 305.63,-284.85"/>
</g>
<!-- raw/html/MultilevelModel.html&#45;&gt;made/MultilevelModel.csv -->
<g id="edge10" class="edge raw-html-MultilevelModel-html">
<title>raw/html/MultilevelModel.html&#45;&gt;made/MultilevelModel.csv</title>
<path fill="none" stroke="#00e539" d="M146.58,-180.73C187.03,-191.15 237.3,-204.1 278.14,-214.62"/>
<polygon fill="#00e539" stroke="#00e539" points="277.1,-217.97 287.66,-217.07 278.85,-211.19 277.1,-217.97"/>
</g>
<!-- raw/html/MultilevelModel.html&#45;&gt;made/merged.csv -->
<g id="edge18" class="edge raw-html-MultilevelModel-html">
<title>raw/html/MultilevelModel.html&#45;&gt;made/merged.csv</title>
<path fill="none" stroke="#00e539" d="M146.58,-162C192.81,-162 251.86,-162 295.02,-162"/>
<polygon fill="#00e539" stroke="#00e539" points="294.95,-165.5 304.95,-162 294.95,-158.5 294.95,-165.5"/>
</g>
<!-- src/extract_word_freq.R -->
<g id="node10" class="node src-extract_word_freq-R -->
">
<title>src/extract_word_freq.R</title>
<path fill="none" stroke="#72e500" stroke-width="2" stroke-dasharray="5,2" d="M121.38,-396C121.38,-396 24.38,-396 24.38,-396 18.38,-396 12.38,-390 12.38,-384 12.38,-384 12.38,-372 12.38,-372 12.38,-366 18.38,-360 24.38,-360 24.38,-360 121.38,-360 121.38,-360 127.38,-360 133.38,-366 133.38,-372 133.38,-372 133.38,-384 133.38,-384 133.38,-390 127.38,-396 121.38,-396"/>
<text text-anchor="middle" x="72.88" y="-374.12" font-family="mono" font-size="10.00">src/extract_word_freq.R</text>
</g>
<!-- src/extract_word_freq.R&#45;&gt;made/CausalModel.csv -->
<g id="edge7" class="edge src-extract_word_freq-R">
<title>src/extract_word_freq.R&#45;&gt;made/CausalModel.csv</title>
<path fill="none" stroke="#72e500" d="M134.18,-378C177.82,-378 236.94,-378 282.79,-378"/>
<polygon fill="#72e500" stroke="#72e500" points="282.63,-381.5 292.63,-378 282.63,-374.5 282.63,-381.5"/>
</g>
<!-- src/extract_word_freq.R&#45;&gt;made/DeepLearning.csv -->
<g id="edge15" class="edge src-extract_word_freq-R">
<title>src/extract_word_freq.R&#45;&gt;made/DeepLearning.csv</title>
<path fill="none" stroke="#72e500" d="M134.18,-362.47C177.47,-351.31 235.99,-336.24 281.67,-324.47"/>
<polygon fill="#72e500" stroke="#72e500" points="282.42,-327.89 291.23,-322.01 280.68,-321.11 282.42,-327.89"/>
</g>
<!-- src/extract_word_freq.R&#45;&gt;made/MultilevelModel.csv -->
<g id="edge11" class="edge src-extract_word_freq-R">
<title>src/extract_word_freq.R&#45;&gt;made/MultilevelModel.csv</title>
<path fill="none" stroke="#72e500" d="M111.98,-359.05C122.9,-353.58 134.81,-347.58 145.75,-342 201.46,-313.56 265.26,-280.27 307.26,-258.24"/>
<polygon fill="#72e500" stroke="#72e500" points="308.88,-261.35 316.11,-253.6 305.63,-255.15 308.88,-261.35"/>
</g>
<!-- src/extract_word_freq.R&#45;&gt;made/merged.csv -->
<g id="edge19" class="edge src-extract_word_freq-R">
<title>src/extract_word_freq.R&#45;&gt;made/merged.csv</title>
<path fill="none" stroke="#72e500" d="M117.37,-359.03C127.06,-354.05 137.03,-348.29 145.75,-342 219.16,-289.05 217.71,-252.79 289.75,-198 294.93,-194.06 300.58,-190.26 306.31,-186.69"/>
<polygon fill="#72e500" stroke="#72e500" points="307.87,-189.84 314.67,-181.71 304.29,-183.83 307.87,-189.84"/>
</g>
<!-- src/stopwords.R -->
<g id="node11" class="node src-stopwords-R -->
">
<title>src/stopwords.R</title>
<path fill="none" stroke="#e5ac00" stroke-width="2" stroke-dasharray="5,2" d="M104.88,-108C104.88,-108 40.88,-108 40.88,-108 34.88,-108 28.88,-102 28.88,-96 28.88,-96 28.88,-84 28.88,-84 28.88,-78 34.88,-72 40.88,-72 40.88,-72 104.88,-72 104.88,-72 110.88,-72 116.88,-78 116.88,-84 116.88,-84 116.88,-96 116.88,-96 116.88,-102 110.88,-108 104.88,-108"/>
<text text-anchor="middle" x="72.88" y="-86.12" font-family="mono" font-size="10.00">src/stopwords.R</text>
</g>
<!-- src/stopwords.R&#45;&gt;made/stopwords.txt -->
<g id="edge20" class="edge src-stopwords-R">
<title>src/stopwords.R&#45;&gt;made/stopwords.txt</title>
<path fill="none" stroke="#e5ac00" d="M117.85,-90C164.55,-90 238.72,-90 291.34,-90"/>
<polygon fill="#e5ac00" stroke="#e5ac00" points="291.04,-93.5 301.04,-90 291.04,-86.5 291.04,-93.5"/>
</g>
<!-- src/viz.R -->
<g id="node12" class="node src-viz-R -->
">
<title>src/viz.R</title>
<path fill="none" stroke="#e50000" stroke-width="2" stroke-dasharray="5,2" d="M370.25,-36C370.25,-36 338.5,-36 338.5,-36 332.5,-36 326.5,-30 326.5,-24 326.5,-24 326.5,-12 326.5,-12 326.5,-6 332.5,0 338.5,0 338.5,0 370.25,0 370.25,0 376.25,0 382.25,-6 382.25,-12 382.25,-12 382.25,-24 382.25,-24 382.25,-30 376.25,-36 370.25,-36"/>
<text text-anchor="middle" x="354.38" y="-14.12" font-family="mono" font-size="10.00">src/viz.R</text>
</g>
<!-- src/viz.R&#45;&gt;made/wordfreq.png -->
<g id="edge3" class="edge src-viz-R">
<title>src/viz.R&#45;&gt;made/wordfreq.png</title>
<path fill="none" stroke="#e50000" d="M382.8,-25.71C422.7,-36.92 497.79,-58.02 551.06,-72.98"/>
<polygon fill="#e50000" stroke="#e50000" points="550.04,-76.33 560.62,-75.67 551.94,-69.59 550.04,-76.33"/>
</g>
</g>
<style>g.edge:hover * {stroke-width: 5;}
.node.src-stopwords-R:hover ~ .src-stopwords-R{stroke-width: 5;}
.node.raw-html-MultilevelModel-html -->
:hover ~ .raw-html-MultilevelModel-html -->
{stroke-width: 5;}
.node.src-extract_word_freq-R:hover ~ .src-extract_word_freq-R{stroke-width: 5;}
.node.Generated by graphviz version 9-0-0 (20230911-1827)
:hover ~ .Generated by graphviz version 9-0-0 (20230911-1827)
{stroke-width: 5;}
.node.made-CausalModel-csv -->
:hover ~ .made-CausalModel-csv -->
{stroke-width: 5;}
.node.raw-html-MultilevelModel-html:hover ~ .raw-html-MultilevelModel-html{stroke-width: 5;}
.node.made-MultilevelModel-csv -->
:hover ~ .made-MultilevelModel-csv -->
{stroke-width: 5;}
.node.src-extract_word_freq-R -->
:hover ~ .src-extract_word_freq-R -->
{stroke-width: 5;}
.node.raw-html-CausalModel-html -->
:hover ~ .raw-html-CausalModel-html -->
{stroke-width: 5;}
.node.made-DeepLearning-csv -->
:hover ~ .made-DeepLearning-csv -->
{stroke-width: 5;}
.node.made-wordfreq-png -->
:hover ~ .made-wordfreq-png -->
{stroke-width: 5;}
.node.Title: fileDAG Pages: 1 -->
:hover ~ .Title: fileDAG Pages: 1 -->
{stroke-width: 5;}
.node.raw-html-DeepLearning-html -->
:hover ~ .raw-html-DeepLearning-html -->
{stroke-width: 5;}
.node.src-stopwords-R -->
:hover ~ .src-stopwords-R -->
{stroke-width: 5;}
.node.src-viz-R:hover ~ .src-viz-R{stroke-width: 5;}
.node.raw-html-DeepLearning-html:hover ~ .raw-html-DeepLearning-html{stroke-width: 5;}
.node.raw-html-CausalModel-html:hover ~ .raw-html-CausalModel-html{stroke-width: 5;}
.node.made-merged-csv:hover ~ .made-merged-csv{stroke-width: 5;}
.node.made-stopwords-txt -->
:hover ~ .made-stopwords-txt -->
{stroke-width: 5;}
.node.made-merged-csv -->
:hover ~ .made-merged-csv -->
{stroke-width: 5;}
.node.src-viz-R -->
:hover ~ .src-viz-R -->
{stroke-width: 5;}
.node.made-stopwords-txt:hover ~ .made-stopwords-txt{stroke-width: 5;}
</style></svg>
